<?xml version="1.0" encoding="utf-8"?>
<!-- Generator: Adobe Illustrator 14.0.0, SVG Export Plug-In . SVG Version: 6.00 Build 43363)  -->
<!DOCTYPE svg PUBLIC "-//W3C//DTD SVG 1.1//EN" "http://www.w3.org/Graphics/SVG/1.1/DTD/svg11.dtd">
<svg version="1.1" id="Calque_1" xmlns="http://www.w3.org/2000/svg" xmlns:xlink="http://www.w3.org/1999/xlink" x="0px" y="0px"
	 width="323px" height="93px" viewBox="0 0 323 93" enable-background="new 0 0 323 93" xml:space="preserve">
<polygon fill="#FFFFFF" points="36.125,10.375 15.125,17.75 12.5,37.25 3.75,47.625 17.25,65.375 6.125,78.625 16.5,86.5
	36.875,80.875 68.75,85.125 73.125,73.875 59.875,65.125 73.75,45.75 63.875,35.25 61.125,18.5 "/>
<path fill="#414143" d="M169.133,42.957c1.544,0.48,3.922,0.187,4.638-1.48c0.705-1.644,0.64-4.147-1.178-5.045
	c-1.733-0.857-3.869-0.052-5.034,1.37C166.107,39.57,166.927,42.223,169.133,42.957"/>
<path fill="#414143" d="M320.885,61.996c-1.33-1.119-4.337-0.266-6.075-0.955c4.174-3.231,11.242-14.716,2.048-16.319
	c-8.265-1.438-14.877,9.633-10.185,16.365c-1.171,0.711-2.68,0.571-3.979,0.388c2.646-2.701,0.295-7.253-1.604-9.526
	c-1.116-1.338-3.691-3.134-3.521-5.004c0.189-2.052-0.095-3.725-2.27-4.527c-1.681-0.621-3.579-0.31-4.437,1.409
	c-0.881,1.77-0.102,2.91,1.01,4.25c1.355,1.633-0.484,4.329-1.1,6.037c-0.722,1.998-1.524,4.114-3.392,5.323
	c0.292-2.244-0.41-4.44-1.619-6.315c-0.71-1.101-3.787-3.334-3.944-4.412c-0.191-1.329,0.328-2.792-0.503-3.969
	c-1.214-1.715-3.672-2.258-5.294-0.793c-1.532,1.387-1.45,3.381-0.352,4.967c1.093,1.579-0.325,4.53-0.95,6.18
	c-1.09,2.88-4.691,9.735-8.499,6.059c2.717-2.23,5.061-5.03,5.734-8.573c0.61-3.212-0.419-6.682-4.105-7.102
	c-8.416-0.957-14.291,8.558-9.927,15.681c-1.482,0.729-4.245,1.273-5.49-0.173c-1.835-2.131,0.462-5.922,0.849-8.194
	c0.361-2.125,0.672-5.03-1.135-6.627c-1.982-1.753-5.158-0.511-7.083,0.688c1.987-3.705,3.873-7.681,4.234-11.93
	c0.321-3.784-0.609-9.438-5.641-8.148c-8.418,2.16-6.762,15.145-6.2,21.351c0.334,3.696-0.138,6.737-2.501,9.768
	c-2.085,2.676-6.042,4.088-9.119,2.118c-2.844-1.821-3.372-5.938-1.538-8.659c1.388-2.063,5.26-2.736,3.783,0.699
	c-1.062,2.476,4.826,4.339,5.668,0.666c0.851-3.697,0.063-6.905-4.022-7.77c-7.638-1.614-14.871,7.055-12.302,14.402
	c0.272,0.774,0.833,0.987,0.051,1.585c-0.541,0.413-1.176,0.609-1.855,0.578c-2.146-0.09-1.963-2.502-1.777-4.073
	c0.354-2.953,3.656-9.99-1.19-10.521c-3.598-0.392-4.192,2.36-4.513,5.289c-0.125,1.143-0.936,11.654-4.142,8.057
	c-2.429-2.724,0.111-9.421,0.706-12.548c0.331-1.736,0.365-3.585-1.368-4.572c-1.305-0.742-3.144-1.055-4.181,0.271
	c-1.857,2.372-1.513,7.115-1.647,9.877c-0.113,2.322-0.05,4.651,0.503,6.919c0.334,1.369-2.724,1.769-3.619,1.076
	c-2.04-1.584-0.684-7.701-0.47-9.704c0.497-4.652,0.664-9.608,2.047-14.098c0.495-1.618,0.928-3.377-0.395-4.739
	c-1.111-1.144-3.397-1.871-4.558-0.395c-1.026,1.302-1.08,3.608-1.333,5.159c-0.45,2.772-0.785,5.562-1.053,8.356
	c-8.157-2.763-15.191,7.787-12.605,14.937c0.481,1.333-1.976,0.943-2.569,0.8c-1.764-0.428-1.97-2.188-1.772-3.75
	c0.343-2.467,0.86-4.853,1.438-7.266c0.411-1.71,0.115-3.096-1.596-3.813c-4.57-1.915-4.657,2.921-4.754,6.054
	c-0.048,1.586,0.731,5.218-0.162,6.55c-0.789,1.178-3.16,2.375-4.326,1.002c-1.002-1.178-0.363-3.277-0.052-4.586
	c0.547-2.304,1.237-4.641,0.999-7.033c-0.518-5.213-5.74-4.327-8.925-1.92c1.587-3.224,7.779-20.235-1.198-19.106
	c-3.554,0.446-5.685,4.169-6.604,7.326c-1.257,4.31-0.639,9.026-0.231,13.416c0.188,2.014,0.688,4.023-0.344,5.886
	c-0.88,1.587-2.191,3.093-3.589,4.245c-2.916,2.399-7.555,2.696-9.219-1.318c-1.069-2.577-0.208-5.396,1.71-7.291
	c2.597-2.569,4.107-0.768,2.689,2.121c-1.564,3.185,3.43,2.85,4.73,0.742c1.76-2.851,1.271-6.888-2.152-8.11
	c-7.623-2.722-14.509,6.327-13.376,13.29c0.313,1.928,0.97,2.722-1.431,3.036c-1.225,0.162-2.76-0.171-3.084-1.56
	c-0.406-1.744,0.73-3.663,1.118-5.317c0.495-2.111-0.204-4.007-1.725-5.501c-1.173-1.153-2.633-1.981-4.113-2.663
	c-1.534-0.652-1.109-1.57-1.671-3.012c-1.483-3.815-6.03-2.384-6.423,1.231c-0.217,1.99,1.124,2.684,2.231,3.953
	c0.83,0.956-0.171,4.985-0.36,6.266c-0.228,1.537-2.773,8.733-5.499,5.298c-2.124-2.677,1.418-8.853,2.078-11.65
	c0.937-3.962-5.86-6.37-6.205-2.303c-7.375-5.078-15.804,3.603-15.976,10.891c-0.08,3.329,0.984,7.179,4,9.009
	c3.695,2.244,8.549,0.407,10.966-2.865c2.386,3.284,7.992,3.806,11.068,1.241c3.862-3.22,4.039-8.835,4.438-13.446
	c4.94,2.625,0.172,6.147,0.49,9.973c0.265,3.186,4.105,4.828,6.879,4.995c2.116,0.125,4.35-0.491,5.975-1.88
	c1.054-0.907,3.754,0.509,5.208,0.636c4.029,0.351,8.754-0.396,11.471-3.7c-0.427,1.78-1.152,4.229,0.275,5.766
	c0.985,1.058,3.193,1.687,4.363,0.572c1.48-1.412,1.256-5.683,1.619-7.618c0.47-2.504,1.048-5.806,2.797-7.784
	c1.581-1.784,3.249-1.264,2.603,1.153c-0.683,2.559-1.356,5.298-0.946,7.967c0.721,4.688,8.18,6.149,11.316,2.94
	c1.288,1.897,3.53,2.645,5.746,2.543c2.129-0.096,3.803-1.987,5.52-0.825c3.41,2.311,8.119,1.594,10.243-2.073
	c1.073,1.524,3.134,2.219,4.927,2.26c0.902,0.021,5.04-1.658,5.618-1.163c2.69,2.312,7.911,1.076,9.726-1.811
	c0.258,4.691,8.889,3.481,10.597,0.501c5.139,3.166,11.307,3.073,15.893-0.956c-0.259,1.28-0.641,2.833,0.198,3.991
	c0.646,0.891,2.449,1.958,3.57,1.411c1.348-0.653,1.356-4.309,1.624-5.598c0.338-1.636,0.633-3.289,1.032-4.91
	c0.38-1.54,0.886-3.139,1.884-4.403c0.442-0.563,2.613-2.451,3.388-1.347c0.595,0.85-0.715,3.413-0.902,4.272
	c-0.395,1.806-0.679,3.867-0.407,5.709c0.551,3.732,4.312,4.646,7.529,4.488c1.847-0.093,3.66-0.481,5.383-1.153
	c1.424-0.557,2.667,0.874,3.96,1.442c9.377,4.131,14.082-5.264,15.787-13.067c0.903,1.39,4.818,7.697,0.594,7.07
	c-3.451-0.51-4.339,4.279-1.013,5.233c1.813,0.521,3.564-0.104,5.319-0.465c1.798-0.372,3.464-0.278,5.162-1.168
	c3.729-1.949,5.144-6.612,6.515-10.275c1.266,1.759,2.129,3.826,1.435,5.992c-0.58,1.803-3.26-0.088-4.097,2.093
	c-0.512,1.333,0.047,3.617,1.46,4.215c2.032,0.854,4.121-0.443,6.188-0.095c2.386,0.402,4.166,0.571,6.513-0.25
	c0.709-0.248,1.433-0.826,2.137-1.011c0.488-0.125,2.348,1.242,2.864,1.438c2.169,0.821,4.567,0.984,6.839,0.553
	C321.546,65.906,322.861,63.785,320.885,61.996 M100.48,50.67c-0.731,3.046-1.462,6.229-3.545,8.675
	c-1.83,2.148-4.941,2.69-5.344-0.813c-0.306-2.649,0.623-6.068,2.662-7.891C95.259,49.741,101.03,48.198,100.48,50.67
	 M150.357,44.795c-0.092-1.835-0.241-10.357,2.645-10.631C154.83,33.987,150.711,43.961,150.357,44.795 M188.215,51.575
	c-0.222,2.476-0.158,5.507-1.372,7.752c-0.862,1.6-3.342,3.58-4.697,1.332c-2.429-4.034,1.521-10.629,6.14-10.457
	C188.259,50.659,188.234,51.116,188.215,51.575 M241.617,43.688c-0.08-2.228-0.241-9.485,2.421-10.528
	c1.843-0.724,0.699,2.523,0.491,3.181C243.746,38.86,242.686,41.28,241.617,43.688 M264.005,57.785
	c-1.055,1.41-1.895-0.608-2.062-1.598c-0.298-1.774,0.341-3.81,1.576-5.114c1.513-1.599,3.299-0.733,3.588,1.327
	C267.422,54.638,265.683,56.571,264.005,57.785 M311.529,58.516c-1.446-2.245-0.286-10.983,3.986-8.953
	C318.595,51.025,312.61,57.613,311.529,58.516"/>
<path fill="#414143" d="M66.029,30.533c0.173-6.29-1.735-12.409-6.917-16.305c-6.248-4.696-13.567-5.646-21.226-5.566
	c-7.467,0.08-15.693,1.465-21.919,5.864c-5.035,3.558-7.092,9.205-6.568,15.234c0.154,1.893,0.474,4.214,0.994,6.236
	c-0.8,0.464-1.654,1.148-2.54,1.435c-0.946,0.789-2.171,1.549-2.926,2.54l-0.11,0.167c-0.061-0.01-0.117,0.009-0.166,0.055
	c-0.601,1.08-1.678,1.934-2.263,3.088v0.057c-2.108,2.69-1.588,7.337,0.994,9.603l5.742,4.747c0.909,0.89,1.821,1.771,2.722,2.668
	c1.534,1.526,1.817,3.721,3.074,5.448c-0.551,0.218-1.103,0.44-1.655,0.661c-4.916,1.256-9.468,6.323-9.274,11.479
	c0.059,1.802,0.685,3.57,1.655,5.08c1.346,2.713,4.906,4.492,8.059,4.692c3.952,0.252,8.316-0.603,12.309-1.601
	c1.88-0.397,3.736-0.989,5.577-1.547c1.399-0.099,4.925-2.326,6.899-1.654c3.014,0.599,5.939,1.343,8.942,1.987
	c1.314,0.542,3.777,0.961,5.52,1.27c4.687,0.903,10.017,2.106,14.726,0.745c4.204-1.215,7.244-5.238,7.244-9.634
	c0.015-2.957-1.176-5.636-3.424-7.564c-1.654-1.403-3.966-2.885-6.292-3.64c-0.988-0.324-1.993-0.647-2.979-0.996
	c0.712-1.034,1.171-2.133,1.711-3.256c0.302-0.756,0.385-1.655,0.992-2.261v-0.055c1.092-1.189,2.174-2.401,3.315-3.534
	c1.797-1.649,3.591-3.3,5.388-4.953c1.77-1.625,2.339-4.559,1.814-6.833c-0.32-1.377-1.016-2.629-1.865-3.744
	c-0.667-0.876-1.582-2.3-2.581-2.795c-0.91-0.731-2.177-1.416-2.98-2.208c-0.756-0.39-1.554-0.739-2.263-1.214
	C65.711,33.127,65.98,31.733,66.029,30.533 M68.128,42.619c0.22,0.274,0.495,0.606,0.772,0.883
	c-0.011,0.152,0.063,0.282,0.221,0.385c-1.063,0.998-2.126,1.996-3.19,2.995c-0.439,0.413-0.877,0.823-1.316,1.236
	c-0.776,0.728,0.347,1.808,1.027,1.125c1.436-1.343,2.872-2.688,4.307-4.031c0.112,0.56,0.044,1.13-0.169,1.656
	c0.111-0.115,0.092-0.058-0.053,0.166c-1.583,1.436-3.165,2.87-4.746,4.305c-1.027-1.572-2.34-2.939-3.795-4.118
	c-0.77-0.621-4.05-3.487-5.003-2.704c-1.33,1.092,2.661,2.846,3.345,3.36c1.679,1.26,3.189,2.757,4.348,4.512l-2.209,2.319h-0.056
	c-0.056,0.105-0.233,0.263-0.274,0.386c-0.6,0.752-1.238,1.498-1.71,2.372c-0.553,1.021-0.75,2.169-1.269,3.186
	c-0.938,1.827-2.347,1.865-3.92,2.669c-0.558,0.099-1.48,0.825-2.002,1.406c-0.547,0.608-0.76,0.253-1.513,0.001
	c-0.809-0.271-1.624-0.525-2.44-0.777c-2.577-0.794-5.329-1.047-7.845-2.01c1.117-0.935,2.096-2.041,2.806-3.317
	c0.641-1.151,1.191-2.154,2.381-2.833c2.4-1.373,3.574-2.754,4.847-5.194c1.286-2.463,2.662-4.928,4.527-7.006
	c1.417-1.576,4.121-4.667,6.469-4.667c-0.682,0.537-5.701,4.355-3.808,5.029c0.787,0.28,1.638-1.134,2.112-1.586
	c1.128-1.076,2.341-2.063,3.625-2.946c0.333,0.164,0.664,0.332,0.994,0.497c-0.905,0.75-5.602,4.457-4.413,5.631
	c0.883,0.872,4.977-4.151,5.795-4.858l1.054,0.825c-0.771,0.755-5.699,4.552-4.638,5.632C63.123,48.252,67.513,43.219,68.128,42.619
	 M67.852,73.916c1.583,1.404,1.946,3.708,0.828,5.517c-1.109,1.852-2.942,2.394-4.99,2.459c-5.142,0.163-10.685-1.192-15.629-2.518
	c-1.068-0.285-2.129-0.59-3.196-0.875c-1.05-0.284-1.063-1.842-1.521-2.819c-0.393-0.979-0.851-1.93-1.373-2.849
	c-0.448-0.783-1.276-2.642-2.105-3.056c-1.392-1.853-3.845-1.88-5.934-1.996c-2.44-0.133-4.915-0.051-7.313,0.448
	c-0.428-1.669-2.129-3.917-4.084-3.917c-1.39-0.023-2.746-1.204-3.406-2.357c-1.091-1.902-1.601-3.755-3.219-5.371
	c0.016-0.168-0.096-0.28-0.332-0.33c0.016-0.07-0.02-0.106-0.108-0.111c-0.439-0.439-2.141-1.631-2.208-2.209
	c1.398-2.351,3.443-4.261,5.695-5.784c0.658-0.445,2.525-1.058,1.975-2.161c-0.725-1.092-2.644,0.677-3.291,1.142
	c-2.197,1.575-4.165,3.505-5.595,5.811c-0.827-0.681-1.655-1.36-2.483-2.041c-0.801-0.659-2.13-1.382-2.595-2.318
	c-0.164-0.299-0.277-1.039-0.165-1.545c0.941,0.804,1.883,1.606,2.824,2.411c0.503,0.429,1.006,0.857,1.509,1.286
	c0.857,0.732,2.113-0.428,1.187-1.047c-0.801-0.671-1.601-1.344-2.4-2.015c-0.644-0.542-2.578-1.589-2.18-2.404
	c0.214-0.212,0.561-0.674,0.772-0.937c1.043,0.925,2.087,1.853,3.131,2.777c0.538,0.479,1.076,0.957,1.613,1.433
	c0.799,0.709,2.152-0.394,1.217-1.009l-4.855-4.305c0.994-0.884,0.897-0.984,2.012-0.034c1.388,1.184,2.712,2.442,4.002,3.73
	c0.304,0.308,0.773,0.283,1.105,0.058c0.483-0.719,0.026-1.027-0.45-1.54c-1.315-1.411-2.732-2.727-4.241-3.927
	c1.212-0.712,1.459-0.236,2.627,0.623c1.216,0.894,2.406,2.503,3.721,3.167c1.335,0.676,1.015-1.127,0.438-1.673
	c-1.229-1.163-2.506-2.279-3.916-3.219c0.27-0.004,0.526,0.05,0.772,0.163c4.134,1.432,7.312,5.458,9.675,9.139
	c1.123,1.75,2.003,3.923,3.559,5.331c1.639,1.481,3.838,1.727,4.981,3.799c0.698,1.567,2.113,2.911,3.478,3.922
	c3.149,1.799,6.396,2.243,9.882,3.198c1.49,0.591,3.571,1.246,5.296,1.714c1.641,0.726,3.612,1.168,5.355,1.82
	C61.352,70.609,65.02,71.559,67.852,73.916 M55.049,19.22c3.188,2.462,4.494,6.259,4.433,10.195
	c-0.058,3.815-0.782,8.125-4.159,10.444c-1.133,0.92-2.783,1.899-4.163,2.75c-0.611,0.376-2.905,1.204-2.905,2.107
	c-0.215,0.943-0.432,1.884-0.648,2.826c-0.11,0.482-0.221,0.963-0.331,1.445c-0.157,0.683-1.303,0.68-1.89,0.916
	c-0.047-1.088-0.093-2.175-0.14-3.262c-0.022-0.549-0.039-1.021-0.413-1.487c-0.859-0.521-2.095-0.184-2.095,0.996
	c0.035,0.962,0.072,1.929,0.108,2.894c0.019,0.476,0.037,0.95,0.054,1.426c0.01,0.257-3.229,0.426-3.586,0.426
	c0.028-1.122,0.058-2.243,0.087-3.362c0.012-0.443,0.085-0.965-0.052-1.397c-0.416-1.303-2.122-0.814-2.354,0.345
	c-0.055,1.472-0.111,2.943-0.164,4.415c-0.985-0.054-1.958-0.216-2.927-0.388c0.014-1.163,0.031-2.327,0.046-3.492
	c0.003-0.34,0.092-0.919-0.034-1.246c-0.454-1.184-2.332-0.907-2.332,0.381c-0.054,1.231-0.112,2.463-0.168,3.695
	c-0.509-0.169-1.017-0.345-1.488-0.605c-0.162-1.348-0.01-3.29-0.621-4.513c-0.518-1.039-2.914-1.233-3.911-1.696
	c-1.75-0.812-3.354-1.916-4.852-3.119c-4.338-3.625-6.392-12.131-3.492-17.135c3.288-5.671,12.251-6.89,18.136-7.302
	C41.697,15.021,49.562,15.171,55.049,19.22 M37.715,69.939c2.41,1.509,4.031,5.374,4.746,8.004
	c-1.016-0.169-2.033-0.329-3.036-0.552c-2.22-0.196-4.74-0.829-6.812-1.661c-2.773-1.115-4.279-3.368-5.442-6.013
	c1.736-0.345,3.513-0.474,5.285-0.448C34.008,69.292,36.303,69.161,37.715,69.939 M20.437,69.608c1.224-0.5,2.467-0.954,3.698-1.436
	c0.134,0.53,0.323,1.028,0.499,1.544c1.741,4.094,3.856,7.126,8.444,8.61c-1.042,0.277-2.071,0.6-3.091,0.94
	c-3.158,0.764-6.269,1.667-9.468,2.279c-2.757,0.528-6.823,1.549-9.229-0.457c-2.4-1.997-2.095-5.103,0.066-7.074
	C13.865,71.726,17.32,70.776,20.437,69.608"/>
<path fill="#414143" d="M55.268,32.462c-0.111-1.214-0.939-2.537-2.319-3.862c-0.055-0.054-0.165-0.167-0.275-0.222
	c-1.324-1.16-2.924-1.765-4.801-1.765c-1.876,0-3.368,0.551-4.418,1.655c-0.055,0.054-0.11,0.054-0.165,0.109
	c-1.046,1.162-1.656,2.703-1.767,4.635c-0.165,1.989,0.387,3.701,1.602,5.078c0.165,0.221,0.33,0.388,0.496,0.555
	c0.056,0,0.111,0.054,0.111,0.107c1.104,0.94,2.594,1.27,4.305,1.05c2.043-0.331,3.809-1.324,5.247-2.925
	C54.77,35.223,55.433,33.786,55.268,32.462"/>
<path fill="#414143" d="M22.866,30.806c-0.33,0.611-0.552,1.328-0.606,1.935c-0.167,1.213,0.495,2.704,1.875,4.36
	c1.38,1.652,3.092,2.65,5.024,2.924c1.709,0.277,3.089-0.11,4.195-1.158c0.165-0.114,0.276-0.331,0.44-0.442
	c0-0.055,0-0.055,0.055-0.055c1.159-1.434,1.657-3.146,1.492-5.131c-0.112-1.879-0.609-3.369-1.547-4.527
	c-0.054-0.055-0.109-0.111-0.164-0.111c-1.049-1.157-2.486-1.71-4.418-1.71c-1.876,0-3.422,0.606-4.8,1.932
	C23.749,29.481,23.252,30.2,22.866,30.806"/>
<path fill="#414143" d="M40.805,39.859c-0.497-0.498-1.103-0.772-1.931-0.772c-0.718,0-1.379,0.275-1.877,0.772
	c-0.498,0.552-0.829,1.158-0.829,1.933c0,0.329,0.111,0.714,0.223,0.992c1.93-0.938,3.64-0.938,5.078,0
	c0.109-0.275,0.164-0.663,0.164-0.992C41.633,41.018,41.357,40.411,40.805,39.859"/>
</svg>
